<svg id="visual" viewBox="0 0 900 600" width="900" height="600" xmlns="http://www.w3.org/2000/svg" xmlns:xlink="http://www.w3.org/1999/xlink" version="1.1"><rect x="0" y="0" width="900" height="600" fill="#ffffff"></rect><path d="M0 267L13.7 299.7C27.3 332.3 54.7 397.7 82 396.5C109.3 395.3 136.7 327.7 163.8 296C191 264.3 218 268.7 245.2 266.5C272.3 264.3 299.7 255.7 327 281C354.3 306.3 381.7 365.7 409 365.7C436.3 365.7 463.7 306.3 491 312C518.3 317.7 545.7 388.3 573 387.7C600.3 387 627.7 315 654.8 299.2C682 283.3 709 323.7 736.2 323.3C763.3 323 790.7 282 818 269.3C845.3 256.7 872.7 272.3 886.3 280.2L900 288L900 0L886.3 0C872.7 0 845.3 0 818 0C790.7 0 763.3 0 736.2 0C709 0 682 0 654.8 0C627.7 0 600.3 0 573 0C545.7 0 518.3 0 491 0C463.7 0 436.3 0 409 0C381.7 0 354.3 0 327 0C299.7 0 272.3 0 245.2 0C218 0 191 0 163.8 0C136.7 0 109.3 0 82 0C54.7 0 27.3 0 13.7 0L0 0Z" fill="#9ad2ff"></path><path d="M0 225L13.7 236.5C27.3 248 54.7 271 82 291.5C109.3 312 136.7 330 163.8 334.7C191 339.3 218 330.7 245.2 336.7C272.3 342.7 299.7 363.3 327 375C354.3 386.7 381.7 389.3 409 377C436.3 364.7 463.7 337.3 491 313C518.3 288.7 545.7 267.3 573 255.7C600.3 244 627.7 242 654.8 267.5C682 293 709 346 736.2 363.8C763.3 381.7 790.7 364.3 818 356.8C845.3 349.3 872.7 351.7 886.3 352.8L900 354L900 0L886.3 0C872.7 0 845.3 0 818 0C790.7 0 763.3 0 736.2 0C709 0 682 0 654.8 0C627.7 0 600.3 0 573 0C545.7 0 518.3 0 491 0C463.7 0 436.3 0 409 0C381.7 0 354.3 0 327 0C299.7 0 272.3 0 245.2 0C218 0 191 0 163.8 0C136.7 0 109.3 0 82 0C54.7 0 27.3 0 13.7 0L0 0Z" fill="#90ccff"></path><path d="M0 245L13.7 253.7C27.3 262.3 54.7 279.7 82 276C109.3 272.3 136.7 247.7 163.8 224.8C191 202 218 181 245.2 197.7C272.3 214.3 299.7 268.7 327 271.7C354.3 274.7 381.7 226.3 409 219.5C436.3 212.7 463.7 247.3 491 246.3C518.3 245.3 545.7 208.7 573 214.7C600.3 220.7 627.7 269.3 654.8 290.5C682 311.7 709 305.3 736.2 279C763.3 252.7 790.7 206.3 818 212.8C845.3 219.3 872.7 278.7 886.3 308.3L900 338L900 0L886.3 0C872.7 0 845.3 0 818 0C790.7 0 763.3 0 736.2 0C709 0 682 0 654.8 0C627.7 0 600.3 0 573 0C545.7 0 518.3 0 491 0C463.7 0 436.3 0 409 0C381.7 0 354.3 0 327 0C299.7 0 272.3 0 245.2 0C218 0 191 0 163.8 0C136.7 0 109.3 0 82 0C54.7 0 27.3 0 13.7 0L0 0Z" fill="#88c5ff"></path><path d="M0 280L13.7 262.8C27.3 245.7 54.7 211.3 82 210.8C109.3 210.3 136.7 243.7 163.8 262C191 280.3 218 283.7 245.2 280.5C272.3 277.3 299.7 267.7 327 252.8C354.3 238 381.7 218 409 203.5C436.3 189 463.7 180 491 193.7C518.3 207.3 545.7 243.7 573 258.2C600.3 272.7 627.7 265.3 654.8 259.7C682 254 709 250 736.2 236.8C763.3 223.7 790.7 201.3 818 188C845.3 174.7 872.7 170.3 886.3 168.2L900 166L900 0L886.3 0C872.7 0 845.3 0 818 0C790.7 0 763.3 0 736.2 0C709 0 682 0 654.8 0C627.7 0 600.3 0 573 0C545.7 0 518.3 0 491 0C463.7 0 436.3 0 409 0C381.7 0 354.3 0 327 0C299.7 0 272.3 0 245.2 0C218 0 191 0 163.8 0C136.7 0 109.3 0 82 0C54.7 0 27.3 0 13.7 0L0 0Z" fill="#80beff"></path><path d="M0 151L13.7 158.2C27.3 165.3 54.7 179.7 82 186.8C109.3 194 136.7 194 163.8 198.7C191 203.3 218 212.7 245.2 210.3C272.3 208 299.7 194 327 194.8C354.3 195.7 381.7 211.3 409 214.2C436.3 217 463.7 207 491 194.7C518.3 182.3 545.7 167.7 573 173.2C600.3 178.7 627.7 204.3 654.8 213.8C682 223.3 709 216.7 736.2 211.8C763.3 207 790.7 204 818 199.7C845.3 195.3 872.7 189.7 886.3 186.8L900 184L900 0L886.3 0C872.7 0 845.3 0 818 0C790.7 0 763.3 0 736.2 0C709 0 682 0 654.8 0C627.7 0 600.3 0 573 0C545.7 0 518.3 0 491 0C463.7 0 436.3 0 409 0C381.7 0 354.3 0 327 0C299.7 0 272.3 0 245.2 0C218 0 191 0 163.8 0C136.7 0 109.3 0 82 0C54.7 0 27.3 0 13.7 0L0 0Z" fill="#79b7ff"></path><path d="M0 87L13.7 91.2C27.3 95.3 54.7 103.7 82 117.3C109.3 131 136.7 150 163.8 146.8C191 143.7 218 118.3 245.2 109C272.3 99.7 299.7 106.3 327 116.2C354.3 126 381.7 139 409 145.8C436.3 152.7 463.7 153.3 491 151.3C518.3 149.3 545.7 144.7 573 139.8C600.3 135 627.7 130 654.8 125.7C682 121.3 709 117.7 736.2 120.2C763.3 122.7 790.7 131.3 818 129C845.3 126.7 872.7 113.3 886.3 106.7L900 100L900 0L886.3 0C872.7 0 845.3 0 818 0C790.7 0 763.3 0 736.2 0C709 0 682 0 654.8 0C627.7 0 600.3 0 573 0C545.7 0 518.3 0 491 0C463.7 0 436.3 0 409 0C381.7 0 354.3 0 327 0C299.7 0 272.3 0 245.2 0C218 0 191 0 163.8 0C136.7 0 109.3 0 82 0C54.7 0 27.3 0 13.7 0L0 0Z" fill="#74b0ff"></path><path d="M0 42L13.7 52.5C27.3 63 54.7 84 82 83.2C109.3 82.3 136.7 59.7 163.8 58.3C191 57 218 77 245.2 79.8C272.3 82.7 299.7 68.3 327 65.7C354.3 63 381.7 72 409 70.5C436.3 69 463.7 57 491 60.7C518.3 64.3 545.7 83.7 573 82.5C600.3 81.3 627.7 59.7 654.8 58.2C682 56.7 709 75.3 736.2 83C763.3 90.7 790.7 87.3 818 79C845.3 70.7 872.7 57.3 886.3 50.7L900 44L900 0L886.3 0C872.7 0 845.3 0 818 0C790.7 0 763.3 0 736.2 0C709 0 682 0 654.8 0C627.7 0 600.3 0 573 0C545.7 0 518.3 0 491 0C463.7 0 436.3 0 409 0C381.7 0 354.3 0 327 0C299.7 0 272.3 0 245.2 0C218 0 191 0 163.8 0C136.7 0 109.3 0 82 0C54.7 0 27.3 0 13.7 0L0 0Z" fill="#70a9ff"></path></svg>