<svg id="visual" viewBox="0 0 900 600" width="900" height="600" xmlns="http://www.w3.org/2000/svg" xmlns:xlink="http://www.w3.org/1999/xlink" version="1.1"><g stroke-width="1" stroke-linejoin="bevel"><path d="M460 292L599 165L449 151Z" fill="#c9e3fa" stroke="#c9e3fa"></path><path d="M460 292L611 314L599 165Z" fill="#c9e3fa" stroke="#c9e3fa"></path><path d="M473 0L325 124L449 151Z" fill="#97d2ff" stroke="#97d2ff"></path><path d="M449 151L308 299L460 292Z" fill="#edf1f6" stroke="#edf1f6"></path><path d="M599 165L473 0L449 151Z" fill="#c0e0fb" stroke="#c0e0fb"></path><path d="M325 124L308 299L449 151Z" fill="#97d2ff" stroke="#97d2ff"></path><path d="M460 292L584 475L611 314Z" fill="#f5f5f5" stroke="#f5f5f5"></path><path d="M599 165L597 0L473 0Z" fill="#f5f5f5" stroke="#f5f5f5"></path><path d="M756 130L597 0L599 165Z" fill="#c0e0fb" stroke="#c0e0fb"></path><path d="M320 425L438 455L460 292Z" fill="#e4eef7" stroke="#e4eef7"></path><path d="M774 293L756 130L599 165Z" fill="#f5f5f5" stroke="#f5f5f5"></path><path d="M438 455L584 475L460 292Z" fill="#c0e0fb" stroke="#c0e0fb"></path><path d="M611 314L774 293L599 165Z" fill="#edf1f6" stroke="#edf1f6"></path><path d="M738 440L774 293L611 314Z" fill="#acd9fd" stroke="#acd9fd"></path><path d="M308 299L320 425L460 292Z" fill="#edf1f6" stroke="#edf1f6"></path><path d="M473 0L322 0L325 124Z" fill="#97d2ff" stroke="#97d2ff"></path><path d="M325 124L158 172L308 299Z" fill="#e4eef7" stroke="#e4eef7"></path><path d="M584 475L738 440L611 314Z" fill="#acd9fd" stroke="#acd9fd"></path><path d="M900 130L772 0L756 130Z" fill="#e4eef7" stroke="#e4eef7"></path><path d="M756 130L772 0L597 0Z" fill="#acd9fd" stroke="#acd9fd"></path><path d="M165 0L158 172L325 124Z" fill="#edf1f6" stroke="#edf1f6"></path><path d="M308 299L169 468L320 425Z" fill="#f5f5f5" stroke="#f5f5f5"></path><path d="M438 455L465 600L584 475Z" fill="#b6dcfc" stroke="#b6dcfc"></path><path d="M584 475L724 600L738 440Z" fill="#a2d5fe" stroke="#a2d5fe"></path><path d="M276 600L465 600L438 455Z" fill="#c9e3fa" stroke="#c9e3fa"></path><path d="M465 600L580 600L584 475Z" fill="#edf1f6" stroke="#edf1f6"></path><path d="M900 450L900 292L774 293Z" fill="#f5f5f5" stroke="#f5f5f5"></path><path d="M774 293L900 130L756 130Z" fill="#e4eef7" stroke="#e4eef7"></path><path d="M900 450L774 293L738 440Z" fill="#acd9fd" stroke="#acd9fd"></path><path d="M158 172L132 276L308 299Z" fill="#e4eef7" stroke="#e4eef7"></path><path d="M320 425L276 600L438 455Z" fill="#97d2ff" stroke="#97d2ff"></path><path d="M900 292L900 130L774 293Z" fill="#c9e3fa" stroke="#c9e3fa"></path><path d="M322 0L165 0L325 124Z" fill="#a2d5fe" stroke="#a2d5fe"></path><path d="M158 172L0 156L132 276Z" fill="#b6dcfc" stroke="#b6dcfc"></path><path d="M132 276L169 468L308 299Z" fill="#f5f5f5" stroke="#f5f5f5"></path><path d="M580 600L724 600L584 475Z" fill="#f5f5f5" stroke="#f5f5f5"></path><path d="M900 130L900 0L772 0Z" fill="#b6dcfc" stroke="#b6dcfc"></path><path d="M900 600L900 450L738 440Z" fill="#e4eef7" stroke="#e4eef7"></path><path d="M169 468L276 600L320 425Z" fill="#97d2ff" stroke="#97d2ff"></path><path d="M0 600L165 600L169 468Z" fill="#dbeaf8" stroke="#dbeaf8"></path><path d="M169 468L165 600L276 600Z" fill="#c0e0fb" stroke="#c0e0fb"></path><path d="M165 0L0 156L158 172Z" fill="#c0e0fb" stroke="#c0e0fb"></path><path d="M132 276L0 435L169 468Z" fill="#97d2ff" stroke="#97d2ff"></path><path d="M0 156L0 319L132 276Z" fill="#c9e3fa" stroke="#c9e3fa"></path><path d="M724 600L900 600L738 440Z" fill="#a2d5fe" stroke="#a2d5fe"></path><path d="M165 0L0 0L0 156Z" fill="#97d2ff" stroke="#97d2ff"></path><path d="M0 319L0 435L132 276Z" fill="#d2e7f9" stroke="#d2e7f9"></path><path d="M0 435L0 600L169 468Z" fill="#dbeaf8" stroke="#dbeaf8"></path></g></svg>